<svg width="21" height="21" viewBox="0 0 21 21" fill="none" xmlns="http://www.w3.org/2000/svg">
<path d="M18.6713 8.86792H18.0001V8.83334H10.5001V12.1667H15.2097C14.5226 14.1071 12.6763 15.5 10.5001 15.5C7.73883 15.5 5.50008 13.2613 5.50008 10.5C5.50008 7.73876 7.73883 5.50001 10.5001 5.50001C11.7747 5.50001 12.9342 5.98084 13.8172 6.76625L16.1742 4.40917C14.6859 3.02209 12.6951 2.16667 10.5001 2.16667C5.898 2.16667 2.16675 5.89792 2.16675 10.5C2.16675 15.1021 5.898 18.8333 10.5001 18.8333C15.1022 18.8333 18.8334 15.1021 18.8334 10.5C18.8334 9.94126 18.7759 9.39584 18.6713 8.86792Z" fill="#FFC107"/>
<path d="M3.12744 6.62125L5.86536 8.62917C6.60619 6.79501 8.40036 5.50001 10.4999 5.50001C11.7745 5.50001 12.9341 5.98084 13.817 6.76625L16.1741 4.40917C14.6858 3.02209 12.6949 2.16667 10.4999 2.16667C7.29911 2.16667 4.52327 3.97376 3.12744 6.62125Z" fill="#FF3D00"/>
<path d="M10.5 18.8333C12.6525 18.8333 14.6084 18.0096 16.0871 16.67L13.508 14.4875C12.6713 15.1213 11.6313 15.5 10.5 15.5C8.33255 15.5 6.49213 14.1179 5.7988 12.1892L3.0813 14.2829C4.46047 16.9817 7.2613 18.8333 10.5 18.8333Z" fill="#4CAF50"/>
<path d="M18.6712 8.86791H18V8.83333H10.5V12.1667H15.2096C14.8796 13.0987 14.28 13.9025 13.5067 14.4879L13.5079 14.4871L16.0871 16.6696C15.9046 16.8354 18.8333 14.6667 18.8333 10.5C18.8333 9.94124 18.7758 9.39583 18.6712 8.86791Z" fill="#1976D2"/>
</svg>
